<svg xmlns="http://www.w3.org/2000/svg" version="1.1" xmlns:xlink="http://www.w3.org/1999/xlink" xmlns:svgjs="http://svgjs.dev/svgjs" width="1000" height="1000" viewBox="0 0 1000 1000"><g transform="matrix(1,0,0,1,-0.14221556886212738,-0.14221556886229791)"><svg viewBox="0 0 334 334" data-background-color="#ffffff" preserveAspectRatio="xMidYMid meet" height="1000" width="1000" xmlns="http://www.w3.org/2000/svg" xmlns:xlink="http://www.w3.org/1999/xlink"><g id="tight-bounds" transform="matrix(1,0,0,1,0.04749999999998522,0.04750000000001364)"><svg viewBox="0 0 333.90454557049503 333.90454557049503" height="333.90454557049503" width="333.90454557049503"><g><svg></svg></g><g><svg viewBox="0 0 333.90454557049503 333.90454557049503" height="333.90454557049503" width="333.90454557049503"><g><path d="M0 166.952c0-92.205 74.747-166.952 166.952-166.952 92.205 0 166.952 74.747 166.953 166.952 0 92.205-74.747 166.952-166.953 166.953-92.205 0-166.952-74.747-166.952-166.953zM166.952 316.63c82.665 0 149.677-67.013 149.678-149.678 0-82.665-67.013-149.677-149.678-149.677-82.665 0-149.677 67.013-149.677 149.677 0 82.665 67.013 149.677 149.677 149.678z" data-fill-palette-color="tertiary" fill="#8abe53" stroke="transparent"></path><ellipse rx="160.27418187383762" ry="160.27418187383762" cx="166.95227278524752" cy="166.95227278524752" fill="#8abe53" stroke="transparent" stroke-width="0" fill-opacity="1" data-fill-palette-color="tertiary"></ellipse></g><g transform="matrix(1,0,0,1,85.67676272172513,71.17305217166896)"><svg viewBox="0 0 162.55102012704478 191.55844122715712" height="191.55844122715712" width="162.55102012704478"><g><svg viewBox="0 0 162.55102012704478 191.55844122715712" height="191.55844122715712" width="162.55102012704478"><g><svg viewBox="0 0 162.55102012704478 191.55844122715712" height="191.55844122715712" width="162.55102012704478"><g><svg viewBox="0 0 162.55102012704478 191.55844122715712" height="191.55844122715712" width="162.55102012704478"><g id="textblocktransform"><svg viewBox="0 0 162.55102012704478 191.55844122715712" height="191.55844122715712" width="162.55102012704478" id="textblock"><g><svg viewBox="0 0 162.55102012704478 191.55844122715712" height="191.55844122715712" width="162.55102012704478"><g transform="matrix(1,0,0,1,0,0)"><svg width="162.55102012704478" viewBox="0.5 -35 29.700000762939453 35" height="191.55844122715712" data-palette-color="#ffffff"><path d="M15.6-35L30.2 0 29.75 0Q29.53 0 29.45-0.25L29.45-0.25 24.58-11.95 6.13-11.95 1.25-0.25Q1.18 0 0.9 0L0.9 0 0.5 0 15.1-35 15.6-35ZM14.95-33.15L6.33-12.45 24.38-12.45 15.75-33.15Q15.63-33.43 15.54-33.66 15.45-33.9 15.35-34.18L15.35-34.18Q15.25-33.9 15.16-33.66 15.08-33.43 14.95-33.15L14.95-33.15Z" opacity="1" transform="matrix(1,0,0,1,0,0)" fill="#ffffff" class="undefined-text-0" data-fill-palette-color="quaternary" id="text-0"></path></svg></g></svg></g></svg></g></svg></g><g></g></svg></g></svg></g></svg></g></svg></g><defs></defs></svg><rect width="333.90454557049503" height="333.90454557049503" fill="none" stroke="none" visibility="hidden"></rect></g></svg></g></svg>